<?xml version="1.0" encoding="utf-8"?>
<!-- Svg Vector Icons : http://www.onlinewebfonts.com/icon -->
<!DOCTYPE svg PUBLIC "-//W3C//DTD SVG 1.1//EN" "http://www.w3.org/Graphics/SVG/1.1/DTD/svg11.dtd">
<svg version="1.1" xmlns="http://www.w3.org/2000/svg" xmlns:xlink="http://www.w3.org/1999/xlink" x="0px" y="0px" viewBox="0 0 1000 1000" enable-background="new 0 0 1000 1000" xml:space="preserve">
<metadata> Svg Vector Icons : http://www.onlinewebfonts.com/icon </metadata>
<g><path d="M407.7,345.1c-3.9-3-8.3-5.4-13-7.1c-6.1,11.7-7.3,25.8-2.2,39c3.2,8.3,8.5,15.1,15.1,20.2c3.9,3,8.3,5.4,12.9,7.1c6.1-11.6,7.3-25.8,2.2-39C419.5,357,414.2,350.2,407.7,345.1z"/><path d="M535.2,263.7c-6.1,3-11.8,6.7-17,11c-13,10.8-22.9,25.6-27.6,43.1c-0.6,2.2-1.1,4.4-1.5,6.6c-1.9,10.4-1.8,20.8,0,30.7c2.1,11.5,6.6,22.3,13,31.9c5.7-2.8,11.1-6.2,16.1-10.3c11.7-9.4,21-22,26.4-36.9c0.8-2.3,1.6-4.6,2.2-6.9c4.7-17.4,3.5-35.1-2.2-50.8C542.2,275.6,539.1,269.4,535.2,263.7z"/><path d="M489.1,240.4c5.1,4.2,10.6,7.7,16.5,10.6c6-9,10.3-19.1,12.6-29.7c2.4-11.3,2.5-23.2,0-35.2c-0.3-1.4-0.6-2.9-1-4.3c-4.8-17.8-14.9-32.7-28.1-43.6c-5.1-4.2-10.7-7.7-16.5-10.6c-13.1,19.6-18.1,44.5-11.5,69.2C465.8,214.6,475.9,229.6,489.1,240.4z"/><path d="M542.7,181.8c-4.6,17.1-3.6,34.5,1.9,50.1c2.4,6.8,5.6,13.2,9.6,19.1c5.9-2.9,11.4-6.4,16.5-10.6c13.2-10.8,23.3-25.8,28.1-43.6c6.6-24.6,1.6-49.6-11.5-69.2c-5.9,2.9-11.4,6.4-16.6,10.6c-11.7,9.6-20.9,22.3-26.2,37.4C543.9,177.7,543.3,179.8,542.7,181.8z"/><path d="M528.8,145c6.7-4.6,12.1-10.9,15.8-18.3c2.2-4.7,3.8-9.8,4.4-15.2c1.1-9.3-0.6-18.2-4.4-26.1c-2-4.1-4.5-7.8-7.5-11.1c-9,6.2-15.7,15.3-18.8,26.2c-0.7,2.4-1.2,4.8-1.5,7.3c-0.7,6.3-0.1,12.4,1.5,18.2C520.3,133.1,523.9,139.6,528.8,145z"/><path d="M652.2,166.8c6.1-11.6,7.4-25.8,2.2-39c-5.2-13.2-15.7-22.8-28.1-27.3c-6.1,11.7-7.3,25.8-2.1,39.1C629.4,152.8,639.8,162.4,652.2,166.8z"/><path d="M400.4,322.1c2.6-2.4,5-4.9,7.3-7.6c12.9-15.3,20.5-35.3,19.8-57c-0.6-19.8-7.9-37.8-19.8-51.9c-3.4-4-7.1-7.7-11.2-11c-17.3,16.2-27.8,39.3-27.1,64.7C370.2,284.7,382.1,307.2,400.4,322.1z"/><path d="M441.5,153.1c0.7-14.1-4.9-27.1-14.4-36.2c-10.3,8.1-17.2,20.6-17.8,34.6c-0.8,14.3,4.9,27.2,14.4,36.4C434,179.8,440.9,167.3,441.5,153.1z"/><path d="M848,359.3c-5.4,8.7-9.2,18.3-11.2,28.3c3.7,1.3,7.4,2.3,11.2,3.1c19.4,3.9,40.2,1,58.6-9.5c10.8-6.2,19.8-14.4,26.6-23.9c7.1-9.9,12-21.2,14.4-33c-4.7-1.6-9.5-2.9-14.4-3.6c-18.4-3-37.9,0.1-55.5,10.1C865.2,337.8,855.1,347.8,848,359.3z"/><path d="M318.5,199.5c5.7,9.3,14.4,16,24.2,19.6c6.1-11.6,7.3-25.8,2.2-39c-4.9-12.7-14.8-21.9-26.4-26.6c-0.5-0.2-1.1-0.4-1.7-0.6c-6.1,11.5-7.3,25.7-2.2,39C315.8,194.5,317.1,197.1,318.5,199.5z"/><path d="M848,430.3c-2.6,1.2-5.2,2.5-7.7,3.9c-1.8,1-3.6,2.1-5.2,3.2c-19.1,12.8-31.5,32.4-35.7,53.6c11.4,4,23.6,5.5,35.7,4.4c4.3-0.4,8.7-1.1,12.9-2.2c7.2-1.9,14.3-4.7,21.1-8.6c22.2-12.6,36.4-33.8,41-56.9C890.4,420.8,868.2,421.3,848,430.3z"/><path d="M631.4,237c-6.6,24.6-1.6,49.6,11.6,69.2c5.9-2.9,11.4-6.4,16.5-10.6c13.3-10.8,23.3-25.8,28.1-43.5c6.6-24.6,1.6-49.6-11.5-69.2c-5.9,2.9-11.5,6.5-16.6,10.6C646.2,204.3,636.2,219.2,631.4,237z"/><path d="M848,292.5c-5.2,7.8-7.9,17-7.9,26.1c2.6,0.4,5.2,0.5,7.9,0.4c10.6-0.3,21.1-4.1,29.6-11.6c10.7-9.2,16.1-22.4,16.1-35.5c-13-1.8-26.7,1.9-37.4,11.2C853.1,285.9,850.3,289.1,848,292.5z"/><path d="M918.8,408c4.3,3.3,9.2,5.8,14.4,7.4c7.5,2.3,15.6,2.8,23.7,1.1c13.9-2.8,25.1-11.6,31.5-23c-10.4-7.9-24.1-11.5-38.1-8.6c-6.3,1.3-12.1,3.8-17.2,7.3C927.2,396.3,922.3,401.8,918.8,408z"/><path d="M730.9,212.8c-10.3,18.7-12.7,40.1-8.1,59.8c2.7-0.2,5.4-0.6,8.1-1.1c10.3-2,20.3-5.8,29.2-11.5c8.9-5.6,17-13,23.5-22.1c14.9-20.6,19.2-45.7,13.9-68.8c-13.2,1.2-26,5.5-37.4,12.6c-8.9,5.6-17,13-23.6,22.1C734.5,206.7,732.6,209.7,730.9,212.8z"/><path d="M835.1,252.2c4.4-0.5,8.7-1.5,12.9-3.3c1.8-0.7,3.5-1.6,5.2-2.5c12.4-7,20.3-18.7,23-31.6c-9-3.2-18.8-3.7-28.2-1.1c-3.6,1-7.2,2.4-10.6,4.4c-0.8,0.4-1.6,0.9-2.3,1.4c-11.1,7.1-18.3,18.1-20.8,30.2C820.9,252,828,252.9,835.1,252.2z"/><path d="M710.4,185.6c7.9-2.9,15.1-8,20.5-14.8c3-3.7,5.5-8,7.3-12.7c5-13.2,3.7-27.4-2.4-39c-1.6,0.6-3.3,1.3-4.8,2.1c-9.3,4.6-17,12.3-21.7,22.2c-0.5,1-0.9,2.1-1.3,3.1c-4.7,12.4-3.9,25.6,1.3,36.8C709.6,184.1,710,184.9,710.4,185.6z"/><path d="M760.2,301.5c-2.4,2-4.7,4-6.9,6.3c-11.4,11.4-18.8,25.3-22.3,39.9c-2,8.5-2.7,17.2-2.1,25.8c0.7,0,1.4,0.1,2.1,0.1c9.9,0.4,19.8-0.9,29.2-3.9c12.6-4,24.3-11,34.3-21c18-18,26.1-42.2,24.4-65.8C798.2,281.6,777.1,287.8,760.2,301.5z"/><path d="M155.4,288.5c3.1,2.3,6.4,4.3,9.8,5.7c8.5,3.7,17.8,4.7,26.7,3.3c0.5-0.1,1-0.2,1.6-0.3c-0.2-3.2-0.7-6.4-1.6-9.5c-2.6-9.6-8.3-18.5-16.8-25c-3.1-2.4-6.4-4.3-9.9-5.8c-9-3.9-18.9-4.9-28.2-2.9C137.8,267,144.1,279.8,155.4,288.5z"/><path d="M730.9,595.7c9.9-3.6,19.7-7,29.2-10.7c29.1-11.1,55.8-24.1,74.9-47.4c4.8-5.9,9.2-12.4,12.9-19.7c3-5.7,5.6-11.9,7.9-18.7c-2.5,2-5.1,3.9-7.9,5.7c-4.1,2.7-8.4,5.2-12.9,7.6c-21,11-47,19.5-74.9,27.5c-9.6,2.7-19.4,5.4-29.2,8.2c-6.3,1.7-12.6,3.5-18.9,5.3c5.4-9.5,11.7-19.6,18.9-29.8c8.5-12,18.2-24,29.2-35.4c11.7-12.1,24.9-23.5,39.7-33.2c-13.1,4.6-26.4,11.8-39.7,20.8c-9.8,6.7-19.6,14.3-29.2,22.6c-7.3,6.3-14.6,13-21.7,19.9c-16.8,16.4-32.6,34-46.9,50.8l-2.9,1.1c-35.4,12.9-67.4,29.5-88.7,54.4c-7.3,8.5-13.3,17.9-17.8,28.5c-0.7-35.7,6.1-65.6,17.8-91c19.5-42.3,52.8-72,88.7-94.4c16.4-10.2,33.4-19,49.8-26.7c7.4-3.5,14.6-6.7,21.7-9.8c10.3-4.5,20.1-8.7,29.2-12.8c32.8-14.5,56.2-26.7,56.2-43.4c-16.8,14-36.2,20.8-56.2,25.1c-9.7,2.1-19.6,3.6-29.2,5.1c-7.4,1.1-14.6,2.2-21.7,3.5c-8,1.5-15.8,3.3-23.1,5.7c19.2-57.6,26-83.7,7.9-138.1c0,69.7-8.6,106.5-34.6,136.9c-6.2,7.2-13.3,14-21.6,20.9c-18.1,14.9-43.8,28.8-67.1,47.8c-9.3,7.6-18.2,16-26.2,25.6c-1.5,1.8-3,3.7-4.4,5.6c0-11.9,1.6-23.2,4.4-34.2c5.5-21.8,15.5-42.2,26.2-62.7c26.7-51.5,57-103.7,28.6-181.2c-3.4,47-15,80.1-28.6,107.1c-8.5,16.8-17.7,31.2-26.2,45.1c-10,16.4-18.9,32.1-24.2,50.1l-2.2-1.8c-11.4-9.2-21.1-18.2-29.1-27c-50-54.6-40.6-103.8-29.9-179.4c-63.1,189.2,29.6,158.1,29.6,303.9c-30.3-39.4-58.4-67.3-81.1-95.4c-34.5-42.6-56.9-85.8-56.9-171c-19.3,96,16.1,148.9,56.9,206.1c31.4,43.9,65.9,90.2,81.4,160.3c2.9,13.1,5.1,27,6.6,41.8c-2.2-2.5-4.4-5-6.6-7.4c-26.8-29.7-53.2-52.2-81.4-72c-4.6-3.2-9.2-6.4-13.9-9.5c-26.1-49.9-30.5-107.9-75.2-155.8c-3.3-3.5-6.8-7-10.6-10.4c3.9,5.8,7.4,11.6,10.6,17.4c23.8,43.6,28.2,88.1,43.8,128.9c-13.9-8.4-28.4-16.8-43.8-25.7c-10.7-6.2-21.8-12.6-33.4-19.4c-20.3-11.9-42.1-24.9-65.7-39.9c-6.7-4.3-13.5-8.7-20.5-13.3c0.3,12.3,8.2,23.9,20.5,35.2c16.7,15.5,41.5,30.6,65.7,46.7c11.6,7.7,23,15.6,33.4,24c14,11.2,26.2,23.1,34.1,36.1c-6.3-2.1-18.3-4.9-34.1-7.9c-9.9-1.9-21.2-3.8-33.4-5.7c-20.1-3-42.7-5.7-65.7-7.5c-9.2-0.7-18.4-1.3-27.5-1.7c-9-0.4-18-0.6-26.7-0.5c-36.6,0.2-69.3,4.4-87.9,15.7c-0.9,0.6-1.8,1.1-2.7,1.7l2.7,0c30,0.1,59.5,1.3,87.9,4.1c9,0.9,17.9,1.9,26.7,3.1c9.3,1.2,18.5,2.7,27.5,4.3c23,4.1,45,9.4,65.7,16.1c11.6,3.7,22.7,7.9,33.4,12.5c35.3,15.3,65.6,35.5,89.2,61.8c20.2,22.7,35.4,49.8,44.4,82.2c6,21.8,7.9,111.4-10.8,138.1l160,0c-15.2-21-27.3-80.8-30.5-116.5c-0.9-10.2-1.1-18.4-0.5-23.2c0.2-1.1,0.3-2.2,0.5-3.3c12.5-86,47.2-128.8,88.7-154.8c15.9-10,32.8-17.6,49.8-24.2C716.5,600.9,723.7,598.3,730.9,595.7z"/><path d="M720.7,660.3c-3.5-3.4-7.3-6.3-11.5-8.4c-7.8-4.1-16.6-5.9-25.2-5.3c-0.9,13.2,3.6,26.6,13.7,36.6c3.5,3.5,7.3,6.3,11.4,8.4c6.8,3.6,14.2,5.4,21.7,5.4c1.2,0,2.3,0,3.5-0.1c0.5-7.3-0.7-14.6-3.5-21.4C728.6,670,725.2,664.8,720.7,660.3z"/><path d="M219.4,640.1c-1.8,0.4-3.6,0.9-5.5,1.6c-9.2,3.3-16.7,9.2-22.1,16.5c-2.4,3.3-4.4,7-5.9,10.8c1.9,1.1,3.9,2,5.9,2.8c8.6,3.3,18.1,4.2,27.5,2.1c1.8-0.4,3.7-1,5.5-1.6c13.3-4.8,23.2-15,28-27.3C243,639.4,231.1,637.5,219.4,640.1z"/><path d="M835.1,619.3c-14.1-10.4-31.5-16.6-50.3-16.6c-8.6,0-16.9,1.3-24.7,3.6c-10.8,3.3-20.7,8.7-29.2,15.7c-3.6,3-7,6.3-10,9.8c3.1,3.5,6.4,6.8,10,9.7c8.5,7,18.4,12.4,29.2,15.6c7.8,2.4,16.1,3.6,24.7,3.6c18.8,0,36.2-6.1,50.3-16.5c4.7-3.5,9.1-7.4,12.9-11.8l0.6-0.7l-0.6-0.7C844.1,626.8,839.8,622.8,835.1,619.3z"/><path d="M910.3,636.4c-12.8-6.1-27-5.9-39.1-0.6c3.6,12.7,12.4,23.8,25.2,29.9c12,5.7,25.2,5.9,36.7,1.6c0.8-0.3,1.6-0.6,2.4-0.9c-0.6-2.2-1.4-4.4-2.4-6.5C928.8,649.9,920.9,641.5,910.3,636.4z"/><path d="M933.2,498.6c-2.1-0.7-4.3-1.2-6.6-1.6c-14-2.2-27.6,2-37.7,10.4c7.1,11.2,18.6,19.3,32.7,21.6c3.9,0.6,7.8,0.7,11.6,0.4c9.7-0.9,18.8-4.8,26-10.8C953.4,509.3,944.3,502.1,933.2,498.6z"/><path d="M953,444.8c-7.3,0.7-14,3.1-19.8,6.6c-5.5,3.4-10.3,7.8-14,13c4.1,3.9,8.8,7,14,9.2c7.1,3,14.9,4.3,23,3.5c14.1-1.4,26.2-9,33.8-19.7C980.5,448.3,967.1,443.4,953,444.8z"/><path d="M285.1,289.9c10.3,6.3,21.7,10.3,33.4,11.8c1.8,0.2,3.5,0.4,5.3,0.5c3.4-16.9,1.8-34.7-5.3-50.9c-2.7-6.1-6.1-12-10.3-17.5c-6.5-8.6-14.4-15.6-23.1-21c-11.8-7.2-25.1-11.4-38.7-12.2c-4.8,23.1,0.1,48.1,15.6,68.3C268.5,277.6,276.4,284.6,285.1,289.9z"/><path d="M890.6,546.2c-16.7,3.3-31.2,11.2-42.6,22.2c-4.9,4.8-9.3,10.2-12.9,16.1c-0.5,0.9-1,1.7-1.5,2.6c0.5,0.4,1,0.8,1.5,1.2c4.1,3,8.4,5.6,12.9,7.9c16.1,7.9,34.8,10.9,53.8,7.1c11.6-2.3,22.2-6.8,31.4-13.1c10.6-7.2,19.3-16.7,25.6-27.6c-7.6-5.9-16.3-10.6-25.6-13.6C919.9,544.4,905.3,543.3,890.6,546.2z"/><path d="M165.2,640c-15.1-14-35.3-22.5-57.5-22.5c-10.7,0-20.9,2-30.4,5.6c-13,5-24.5,13.1-33.4,23.4c9,10.3,20.4,18.4,33.4,23.4c9.4,3.7,19.7,5.7,30.4,5.7c22.2,0,42.4-8.6,57.5-22.5c2.2-2.1,4.4-4.3,6.4-6.6C169.6,644.3,167.5,642.1,165.2,640z"/><path d="M193.5,247c4.9,12.4,14.5,21.7,26,26.4c0.7,0.3,1.4,0.5,2.1,0.8c6.1-11.6,7.3-25.8,2.2-39c-1.2-3-2.6-5.9-4.3-8.5c-5.7-8.9-14.2-15.4-23.7-18.8c-1.6,3.1-2.9,6.4-3.8,9.9c-2.1,7.8-2.2,16.2,0,24.3C192.3,243.8,192.8,245.4,193.5,247z"/><path d="M146.5,380.8c6,4.1,12.3,7.3,18.8,9.7c8.7,3.2,17.7,4.9,26.7,5.2c8,0.2,15.9-0.7,23.6-2.6c-2.1-18.4-10.2-36-23.6-49.7c-3.8-3.8-7.9-7.3-12.5-10.5c-4.5-3.1-9.3-5.7-14.2-7.9c-17.6-7.7-37-9-54.9-4.4C113,344.1,125.5,366.4,146.5,380.8z"/><path d="M219.4,419.8c-0.6,0.1-1.1,0.3-1.7,0.4c0.4,3.3,0.9,6.6,1.7,9.8c4.6,19.8,16.4,38,34.4,50.4c9.7,6.7,20.4,11.1,31.3,13.3c11.1,2.2,22.5,2.2,33.4,0c1.5-0.3,3-0.6,4.4-1c-0.8-6.5-2.3-12.8-4.4-18.9c-5.8-16.2-16.5-30.8-31.7-41.3c-0.6-0.4-1.1-0.8-1.7-1.1C265,418.2,241.3,414.7,219.4,419.8z"/><path d="M77.3,565c1-1.3,1.9-2.6,2.7-4c-0.9-0.7-1.8-1.4-2.7-2c-9.9-6.9-22.4-9.9-35.2-7.6c-14,2.6-25.4,11-32.1,22.4c10.3,8.2,23.9,12,37.9,9.5C60.2,581,70.4,574.2,77.3,565z"/><path d="M268.1,378.9c5.3,4.6,11,8.4,17,11.5c10.5,5.4,21.9,8.4,33.4,9c5.6,0.3,11.3,0.1,16.8-0.7c-0.1-17.8-5.8-35.6-16.8-50.4c-3.6-4.8-7.7-9.3-12.4-13.3c-6.5-5.6-13.6-10.1-21-13.4c-14.7-6.5-30.8-8.7-46.4-6.5C238.9,338.6,248.8,362.1,268.1,378.9z"/><path d="M60.5,514.5c5.9,0.5,11.5-0.1,16.8-1.6c7.6-2.2,14.4-6.2,19.9-11.6c-5-6.8-11.9-12.3-19.9-15.7c-4.4-1.8-9.2-3-14.3-3.4c-14-1.2-27.3,4.1-36.8,13.3C34.1,506,46.4,513.3,60.5,514.5z"/><path d="M176.8,508.9c-3.9-0.9-7.7-1.6-11.5-2c-20.8-2.2-41,3.5-57.3,14.9c10.8,21,30.2,37.4,54.9,43.6c0.8,0.2,1.6,0.4,2.4,0.6c9,1.9,18,2.4,26.7,1.5c9.7-1,19-3.6,27.5-7.7c4.3-2.1,8.4-4.5,12.3-7.2c-3.3-6.5-7.5-12.5-12.3-17.9c-7.6-8.4-16.9-15.4-27.5-20.4C187.1,512.1,182.1,510.3,176.8,508.9z"/><path d="M98.2,464.6c20.4,14,44.7,17.9,67,12.8c0.7-0.2,1.3-0.3,2-0.5c-0.4-3.7-1.1-7.4-2-11c-4.8-19.3-16.4-37.1-34.1-49.2c-16.4-11.3-35.4-16-53.8-14.8c-5.2,0.3-10.3,1.2-15.3,2.4c1.6,14.2,6.8,27.9,15.3,39.7C82.9,451.9,89.9,458.8,98.2,464.6z"/></g>
</svg>